<svg xmlns="http://www.w3.org/2000/svg" xmlns:xlink="http://www.w3.org/1999/xlink" viewBox="0 0 966.23 937.93"><defs><style>.cls-1,.cls-2,.cls-3{fill:none;}.cls-1,.cls-2{clip-rule:evenodd;}.cls-2{clip-path:url(#clip-path);}.cls-4{fill:#1f1f1f;fill-rule:evenodd;}.cls-5{clip-path:url(#clip-path-2);}.cls-6{clip-path:url(#clip-path-3);}.cls-7{fill:#ff0;}</style><clipPath id="clip-path"><polygon class="cls-1" points="258.22 811 781.78 811 781.78 293 258.22 293 258.22 811 258.22 811"/></clipPath><clipPath id="clip-path-2" transform="translate(-16.88 -31.03)"><polygon class="cls-2" points="258.22 293 781.78 293 781.78 811 258.22 811 258.22 293 258.22 293"/></clipPath><clipPath id="clip-path-3" transform="translate(-16.88 -31.03)"><polygon class="cls-3" points="258.22 811 781.78 811 781.78 293 258.22 293 258.22 811 258.22 811"/></clipPath></defs><g id="Layer_1" data-name="Layer 1"><path class="cls-4" d="M983.12,500c0,259-216.3,469-483.12,469S16.88,759,16.88,500,233.18,31,500,31,983.12,241,983.12,500Z" transform="translate(-16.88 -31.03)"/></g><g id="Layer_6" data-name="Layer 6"><g class="cls-5"><g class="cls-6"><path class="cls-7" d="M754.5,294.29H286.81a27.15,27.15,0,0,0-27.28,27v487a2.72,2.72,0,0,0,2.74,2.71h25a27.8,27.8,0,0,0,22.32-11.18l52.65-71.05a52.44,52.44,0,0,1,42.13-21.11H754.5a27.15,27.15,0,0,0,27.29-27V321.29a27.15,27.15,0,0,0-27.29-27Zm-209,167.93v155H482.79v-155Zm-9.29-38.61c-33,23.69-69.63-12.52-45.7-45.21a7.3,7.3,0,0,1,1.58-1.56c33.05-23.69,69.64,12.51,45.7,45.21a6.88,6.88,0,0,1-1.58,1.56Z" transform="translate(-16.88 -31.03)"/></g></g></g></svg>