<svg xmlns="http://www.w3.org/2000/svg" xmlns:xlink="http://www.w3.org/1999/xlink" viewBox="0 0 862.9 853.31"><defs><style>.cls-1,.cls-2,.cls-3{fill:none;}.cls-1,.cls-2{clip-rule:evenodd;}.cls-2{clip-path:url(#clip-path);}.cls-4{clip-path:url(#clip-path-2);}.cls-5{clip-path:url(#clip-path-3);}.cls-6{fill:#1f1f1f;}.cls-6,.cls-7{fill-rule:evenodd;}.cls-7{fill:#ff0;}</style><clipPath id="clip-path"><polygon id="SVGID" class="cls-1" points="66.39 929 933.61 929 933.61 71 66.39 71 66.39 929 66.39 929"/></clipPath><clipPath id="clip-path-2" transform="translate(-70.76 -75.57)"><polygon id="SVGID-2" data-name="SVGID" class="cls-2" points="66.39 71 933.61 71 933.61 929 66.39 929 66.39 71 66.39 71"/></clipPath><clipPath id="clip-path-3" transform="translate(-70.76 -75.57)"><polygon id="SVGID-3" data-name="SVGID" class="cls-3" points="66.39 929 933.61 929 933.61 71 66.39 71 66.39 929 66.39 929"/></clipPath></defs><g id="Layer_8" data-name="Layer 8"><g class="cls-4"><g class="cls-5"><path class="cls-6" d="M933.6,432.46c-.08-45.44-.08-90.92-4.87-136.1-3.62-34.51-11.85-67.72-29.18-98.4-19.86-35.08-46-63.81-81.12-84.22A248.66,248.66,0,0,0,717.36,81.23c-28.61-2.87-57.4-4.79-86.18-5q-119.65-1.11-239.28-.35c-38.93.22-77.9.83-116.57,6.88C241.54,88,209.66,99,180.53,116.87c-34.4,21.15-60,50.75-78.69,86-14.15,26.59-22.25,55.53-25.08,85.48-2.83,29.55-4.7,59.32-5.14,89-.91,64.2-.91,128.4-.82,192.55.13,45.7.13,91.44,4.92,137,3.83,36.43,12.71,71.34,31.78,103.2,19.69,33,45,60.06,78.47,79.43a251.63,251.63,0,0,0,71.42,27.72c29.13,6.61,58.87,8.62,88.66,9.23,51.95,1,103.9,1.56,155.84,2.35a10.2,10.2,0,0,1,.05-1.22c36.58,0,73.15.35,109.69-.09,39.23-.43,78.47-.83,117.4-6.88,34.05-5.26,65.88-16.49,95.14-34.51,35.06-21.5,60.62-52,79.47-88,13.55-25.94,21.3-54.09,24-83.17,2.74-29.29,4.66-58.8,5.1-88.22,1-64.76,1-129.52.82-194.28Z" transform="translate(-70.76 -75.57)"/></g></g></g><g id="Layer_9" data-name="Layer 9"><path class="cls-7" d="M499.79,759.18c-32.62-.46-65.25-.83-97.87-1.43-18.73-.37-37.39-1.57-55.7-5.6a161.56,161.56,0,0,1-44.87-16.83c-21-11.77-36.9-28.23-49.28-48.26-12-19.37-17.56-40.56-20-62.69-3-27.67-3-55.43-3.07-83.2-.07-39-.07-78,.52-117,.27-18.07,1.45-36.13,3.21-54.1a134.17,134.17,0,0,1,15.76-51.93c11.76-21.43,27.83-39.43,49.42-52.26,18.31-10.86,38.31-17.53,59.56-20.76,24.28-3.67,48.76-4,73.21-4.17q75.17-.34,150.3.2c18.07.17,36.14,1.33,54.11,3.07A159.56,159.56,0,0,1,698.61,264c22,12.4,38.49,29.83,51,51.16,10.86,18.64,16,38.8,18.31,59.76,3,27.47,3,55.1,3.07,82.7.07,39.32.07,78.69-.52,118-.27,17.86-1.48,35.79-3.21,53.59a132.65,132.65,0,0,1-15.1,50.53c-11.83,21.9-27.9,40.43-49.9,53.49a162.81,162.81,0,0,1-59.77,21c-24.45,3.66-49.11,3.9-73.74,4.16-23,.27-45.93.07-68.9.07a4.72,4.72,0,0,0,0,.73Zm0-47.62v1c33.42-.5,66.83-.9,100.25-1.56,16.59-.34,33-1.8,49.22-5.94,22-5.63,39.31-17.69,52.56-35.26,9-11.93,13.34-25.76,16-40.16,3-16.53,3.48-33.27,3.62-49.93q.62-69.69.38-139.35c-.07-22.53-.07-45.13-3.59-67.46-2.79-17.77-8.14-34.67-20.76-48.6-5.62-6.2-11.55-12.1-18.55-16.83-16.42-11.1-35.15-15.8-54.63-17.36q-27.17-2.2-54.46-2.37c-56.73-.43-113.5-1.1-170.23.77-16.48.53-32.83,1.9-48.94,5.93-22.21,5.53-39.49,17.73-52.8,35.33-9,11.9-13.17,25.86-15.83,40.23-3,16.1-3.45,32.39-3.58,48.66q-.63,72.64-.38,145.25c.07,21,.13,42,3.51,62.83,2.87,17.66,8.11,34.49,20.66,48.39A105.54,105.54,0,0,0,320.8,692c13.07,9,28,13.4,43.56,16.06,17.11,2.94,34.42,3.27,51.7,3.5,27.93.27,55.87,0,83.77,0Z" transform="translate(-70.76 -75.57)"/><path class="cls-7" d="M509.1,365.94c74.19.23,135.5,58.91,135.43,134.24-.06,74.09-60.74,134-135.56,133.88-75-.07-135.64-60.12-135.44-134.24.17-75.4,61.72-133.68,135.57-133.88ZM508.87,587c48.7.1,87.93-38.61,88.07-86.85S557.88,413,509.2,413c-48.23.06-87.9,37.53-88,86.78s39.3,86.74,87.64,87.18Z" transform="translate(-70.76 -75.57)"/><path class="cls-7" d="M644.71,401.68a35.75,35.75,0,1,1-.89-71.49c20.38-.3,36.61,15.24,36.84,35.31s-15.49,35.88-35.95,36.18Z" transform="translate(-70.76 -75.57)"/></g></svg>