<svg xmlns="http://www.w3.org/2000/svg" viewBox="0 0 966.23 937.93"><defs><style>.cls-1{fill:#1f1f1f;}.cls-1,.cls-2{fill-rule:evenodd;}.cls-2{fill:#ff0;}</style></defs><g id="Layer_1" data-name="Layer 1"><path class="cls-1" d="M983.12,500c0,259-216.3,469-483.12,469S16.88,759,16.88,500,233.18,31,500,31,983.12,241,983.12,500Z" transform="translate(-16.88 -31.03)"/></g><g id="Layer_3" data-name="Layer 3"><path class="cls-2" d="M575.66,720.25c0,34.56-58.25,136.28-64.89,147.76A12.33,12.33,0,0,1,500,874h0v.3h0a12.33,12.33,0,0,1-10.75-6c-6.64-11.47-64.9-113.19-64.9-147.75,0-38.88,33.93-70.51,75.67-70.53v-.31c41.74,0,75.64,31.65,75.66,70.53Z" transform="translate(-16.88 -31.03)"/><path class="cls-2" d="M637.93,441c-8.66-71.45-5.13-123.32-13.8-194.75-38.94-80.4-121.24-119-124.13-120v-.54c-2.9,1-85.19,39.59-124.13,120-8.67,71.44-5.14,123.31-13.8,194.76C305.5,492.87,273,564.07,273,637.83A11.22,11.22,0,0,0,279.94,648a13.82,13.82,0,0,0,13.24-1l78.57-52.58,1,16.07c.4,6,5.92,10.61,12.61,10.61H500v.54H614.62c6.69,0,12.21-4.64,12.61-10.6l1-16.08,78.57,52.59a13.87,13.87,0,0,0,13.24,1A11.24,11.24,0,0,0,727,638.38C727,564.61,694.5,493.41,637.93,441ZM500,425.14c-41.79,0-75.67-33.52-75.67-74.86s33.88-74.87,75.67-74.87,75.67,33.53,75.67,74.87S541.79,425.14,500,425.14Z" transform="translate(-16.88 -31.03)"/></g></svg>