<svg xmlns="http://www.w3.org/2000/svg" xmlns:xlink="http://www.w3.org/1999/xlink" viewBox="0 0 966.23 937.93"><defs><style>.cls-1,.cls-2,.cls-3{fill:none;}.cls-1,.cls-2{clip-rule:evenodd;}.cls-2{clip-path:url(#clip-path);}.cls-4{fill:#1f1f1f;fill-rule:evenodd;}.cls-5{clip-path:url(#clip-path-2);}.cls-6{clip-path:url(#clip-path-3);}.cls-7{fill:#ff0;}</style><clipPath id="clip-path"><polygon class="cls-1" points="101.77 894 898.23 894 898.23 106 101.77 106 101.77 894 101.77 894"/></clipPath><clipPath id="clip-path-2" transform="translate(-16.88 -31.03)"><polygon class="cls-2" points="101.77 106 898.23 106 898.23 894 101.77 894 101.77 106 101.77 106"/></clipPath><clipPath id="clip-path-3" transform="translate(-16.88 -31.03)"><polygon class="cls-3" points="101.77 894 898.23 894 898.23 106 101.77 106 101.77 894 101.77 894"/></clipPath></defs><g id="Layer_1" data-name="Layer 1"><path class="cls-4" d="M983.12,500c0,259-216.3,469-483.12,469S16.88,759,16.88,500,233.18,31,500,31,983.12,241,983.12,500Z" transform="translate(-16.88 -31.03)"/></g><g id="Layer_5" data-name="Layer 5"><g class="cls-5"><g class="cls-6"><path class="cls-7" d="M563.88,225.66l14.8,44.06H431.25L447,224.49l116.92,1.17ZM341.16,423.8A16.35,16.35,0,0,0,357.55,440H472.21V423.8a16.36,16.36,0,0,1,16.39-16.22h32.76a16.36,16.36,0,0,1,16.39,16.22V440H652.41A16.35,16.35,0,0,0,668.8,423.8V269.72H627.85l-34.3-79.15L410.63,189l-28.48,80.68H341.21V423.8Z" transform="translate(-16.88 -31.03)"/><path class="cls-7" d="M625.35,675.2H384.56a10.79,10.79,0,0,0-10.64,10.55v111.1H636V685.75a10.82,10.82,0,0,0-10.66-10.55Z" transform="translate(-16.88 -31.03)"/><path class="cls-7" d="M509.42,642.77H625.63c23.75,0,43.41,19.47,43.41,43v111.1H701.8a32.7,32.7,0,0,0,32.76-32.45V723.87l25.11-39L758.14,543l-23.58-13.76V334.61a64.26,64.26,0,0,0-32.76-56V423.82c0,26.76-22.12,48.65-49.15,48.65H538v16.22a16.34,16.34,0,0,1-16.37,16.22H488.57a16.36,16.36,0,0,1-16.39-16.22V472.47H357.52c-27,0-49.15-21.89-49.15-48.65V278.65a64.25,64.25,0,0,0-32.75,56V529.23L252,543l-1.52,141.89,25.11,39v40.55a32.69,32.69,0,0,0,32.75,32.44h32.76V685.75c0-23.51,19.65-43,43.42-43H509.42V504.91" transform="translate(-16.88 -31.03)"/></g></g></g></svg>