<svg xmlns="http://www.w3.org/2000/svg" viewBox="0 0 966.23 937.93"><defs><style>.cls-1{fill:#1f1f1f;}.cls-1,.cls-2{fill-rule:evenodd;}.cls-2{fill:#ff0;}.cls-3{fill:none;stroke:#1f1f1f;stroke-miterlimit:10;stroke-width:30px;}</style></defs><g id="Layer_1" data-name="Layer 1"><path class="cls-1" d="M983.12,500c0,259-216.3,469-483.12,469S16.88,759,16.88,500,233.18,31,500,31,983.12,241,983.12,500Z" transform="translate(-16.88 -31.03)"/></g><g id="Layer_4" data-name="Layer 4"><path class="cls-2" d="M325,633.58V765.1a26.05,26.05,0,0,0,39.1,22.51L824.22,522.52a26,26,0,0,0,0-45L668.53,387.78l-51.25-29.53L364.08,212.38A26.06,26.06,0,0,0,325,234.91V633.58Z" transform="translate(-16.88 -31.03)"/><line class="cls-3" x1="645.66" y1="306.47" x2="252.81" y2="681.47"/></g></svg>