<svg xmlns="http://www.w3.org/2000/svg" xmlns:xlink="http://www.w3.org/1999/xlink" viewBox="0 0 862.9 853.31"><defs><style>.cls-1,.cls-2,.cls-3{fill:none;}.cls-1,.cls-2{clip-rule:evenodd;}.cls-2{clip-path:url(#clip-path);}.cls-4{clip-path:url(#clip-path-2);}.cls-5{clip-path:url(#clip-path-3);}.cls-6{fill:#1f1f1f;}.cls-6,.cls-7{fill-rule:evenodd;}.cls-7{fill:#ff0;}</style><clipPath id="clip-path"><polygon id="SVGID" class="cls-1" points="66.39 929 933.61 929 933.61 71 66.39 71 66.39 929 66.39 929"/></clipPath><clipPath id="clip-path-2" transform="translate(-70.76 -75.57)"><polygon id="SVGID-2" data-name="SVGID" class="cls-2" points="66.39 71 933.61 71 933.61 929 66.39 929 66.39 71 66.39 71"/></clipPath><clipPath id="clip-path-3" transform="translate(-70.76 -75.57)"><polygon id="SVGID-3" data-name="SVGID" class="cls-3" points="66.39 929 933.61 929 933.61 71 66.39 71 66.39 929 66.39 929"/></clipPath></defs><g id="Layer_8" data-name="Layer 8"><g class="cls-4"><g class="cls-5"><path class="cls-6" d="M933.6,432.46c-.08-45.44-.08-90.92-4.87-136.1-3.62-34.51-11.85-67.72-29.18-98.4-19.86-35.08-46-63.81-81.12-84.22A248.66,248.66,0,0,0,717.36,81.23c-28.61-2.87-57.4-4.79-86.18-5q-119.65-1.11-239.28-.35c-38.93.22-77.9.83-116.57,6.88C241.54,88,209.66,99,180.53,116.87c-34.4,21.15-60,50.75-78.69,86-14.15,26.59-22.25,55.53-25.08,85.48-2.83,29.55-4.7,59.32-5.14,89-.91,64.2-.91,128.4-.82,192.55.13,45.7.13,91.44,4.92,137,3.83,36.43,12.71,71.34,31.78,103.2,19.69,33,45,60.06,78.47,79.43a251.63,251.63,0,0,0,71.42,27.72c29.13,6.61,58.87,8.62,88.66,9.23,51.95,1,103.9,1.56,155.84,2.35a10.2,10.2,0,0,1,.05-1.22c36.58,0,73.15.35,109.69-.09,39.23-.43,78.47-.83,117.4-6.88,34.05-5.26,65.88-16.49,95.14-34.51,35.06-21.5,60.62-52,79.47-88,13.55-25.94,21.3-54.09,24-83.17,2.74-29.29,4.66-58.8,5.1-88.22,1-64.76,1-129.52.82-194.28Z" transform="translate(-70.76 -75.57)"/></g></g></g><g id="Layer_11" data-name="Layer 11"><path class="cls-7" d="M500.69,669.77c-54.17.29-108.34-.39-162.4-3.21-17.59-1-35.17-2.43-51.12-10.71-10.67-5.54-18.91-13.23-24.09-24.13-8.74-18.09-11.48-37.16-13.11-56.62-3.45-40.19-3.66-80.37-1.83-120.46.92-21.31,1.63-42.81,6.91-63.73A106.6,106.6,0,0,1,264,367.17c9.35-17.81,25.61-26.66,45.22-30.36,16.46-3.11,33.33-3,50.1-3.69,56.81-2.24,113.72-3.41,170.63-2.83,43.81.49,87.71,1.56,131.51,3.7,13.52.68,27.14.88,40,5.45C719,345.67,732,356.18,739,373.2c6.81,16.35,9.45,33.28,10.88,50.7a931.78,931.78,0,0,1,.81,141.86c-1.12,16-2.24,31.91-6.61,47.58-9.85,36-33.33,50.1-67.78,52.34-36.79,2.34-73.68,3.6-110.57,4.09-21.65.19-43.4,0-65,0Zm-53.36-99.54c49.19-25.78,97.77-51.27,147.16-77.16-49.49-26-98.07-51.37-147.16-77.15V570.23Z" transform="translate(-70.76 -75.57)"/></g></svg>