<svg xmlns="http://www.w3.org/2000/svg" xmlns:xlink="http://www.w3.org/1999/xlink" viewBox="0 0 862.9 853.31"><defs><style>.cls-1,.cls-2,.cls-3,.cls-4{fill:none;}.cls-1,.cls-2,.cls-4{clip-rule:evenodd;}.cls-2{clip-path:url(#clip-path);}.cls-4{clip-path:url(#clip-path-2);}.cls-5{clip-path:url(#clip-path-3);}.cls-6{clip-path:url(#clip-path-4);}.cls-7{fill:#1f1f1f;fill-rule:evenodd;}.cls-8{clip-path:url(#clip-path-5);}.cls-9{clip-path:url(#clip-path-6);}.cls-10{fill:#ff0;}</style><clipPath id="clip-path"><polygon id="SVGID" class="cls-1" points="66.39 929 933.61 929 933.61 71 66.39 71 66.39 929 66.39 929"/></clipPath><clipPath id="clip-path-2"><polygon class="cls-1" points="200.82 796 799.18 796 799.18 204 200.82 204 200.82 796 200.82 796"/></clipPath><clipPath id="clip-path-3" transform="translate(-70.76 -75.57)"><polygon id="SVGID-2" data-name="SVGID" class="cls-2" points="66.39 71 933.61 71 933.61 929 66.39 929 66.39 71 66.39 71"/></clipPath><clipPath id="clip-path-4" transform="translate(-70.76 -75.57)"><polygon id="SVGID-3" data-name="SVGID" class="cls-3" points="66.39 929 933.61 929 933.61 71 66.39 71 66.39 929 66.39 929"/></clipPath><clipPath id="clip-path-5" transform="translate(-70.76 -75.57)"><polygon class="cls-4" points="200.82 204 799.18 204 799.18 796 200.82 796 200.82 204 200.82 204"/></clipPath><clipPath id="clip-path-6" transform="translate(-70.76 -75.57)"><polygon class="cls-3" points="200.82 796 799.18 796 799.18 204 200.82 204 200.82 796 200.82 796"/></clipPath></defs><g id="Layer_8" data-name="Layer 8"><g class="cls-5"><g class="cls-6"><path class="cls-7" d="M933.6,432.46c-.08-45.44-.08-90.92-4.87-136.1-3.62-34.51-11.85-67.72-29.18-98.4-19.86-35.08-46-63.81-81.12-84.22A248.66,248.66,0,0,0,717.36,81.23c-28.61-2.87-57.4-4.79-86.18-5q-119.65-1.11-239.28-.35c-38.93.22-77.9.83-116.57,6.88C241.54,88,209.66,99,180.53,116.87c-34.4,21.15-60,50.75-78.69,86-14.15,26.59-22.25,55.53-25.08,85.48-2.83,29.55-4.7,59.32-5.14,89-.91,64.2-.91,128.4-.82,192.55.13,45.7.13,91.44,4.92,137,3.83,36.43,12.71,71.34,31.78,103.2,19.69,33,45,60.06,78.47,79.43a251.63,251.63,0,0,0,71.42,27.72c29.13,6.61,58.87,8.62,88.66,9.23,51.95,1,103.9,1.56,155.84,2.35a10.2,10.2,0,0,1,.05-1.22c36.58,0,73.15.35,109.69-.09,39.23-.43,78.47-.83,117.4-6.88,34.05-5.26,65.88-16.49,95.14-34.51,35.06-21.5,60.62-52,79.47-88,13.55-25.94,21.3-54.09,24-83.17,2.74-29.29,4.66-58.8,5.1-88.22,1-64.76,1-129.52.82-194.28Z" transform="translate(-70.76 -75.57)"/></g></g></g><g id="Layer_10" data-name="Layer 10"><g class="cls-8"><g class="cls-9"><path class="cls-10" d="M759.15,359.66q-40-67.87-108.63-107.48T500.68,212.57q-81.23,0-149.83,39.61A295.57,295.57,0,0,0,242.22,359.66q-40,67.88-40,148.23,0,96.52,56.94,173.62T406.23,788.22q10.5,1.92,15.55-2.69A15,15,0,0,0,426.83,774q0-1.15-.2-20.77T426.44,719l-8.94,1.53a114.94,114.94,0,0,1-21.57,1.35,166.49,166.49,0,0,1-27-2.69,60.79,60.79,0,0,1-26-11.53A48.78,48.78,0,0,1,325.77,684l-3.88-8.84a95.64,95.64,0,0,0-12.24-19.61Q301.28,644.8,292.74,641L290,639a28.4,28.4,0,0,1-5-4.62,21.07,21.07,0,0,1-3.5-5.38q-1.17-2.7,1.94-4.43c2.08-1.16,5.83-1.72,11.28-1.72l7.77,1.15q7.77,1.53,19.24,9.22a62.33,62.33,0,0,1,18.84,20q9,15.78,21.58,24t25.45,8.27a112.12,112.12,0,0,0,22.16-1.92,78,78,0,0,0,17.49-5.77q3.5-25.79,19-39.61a268.51,268.51,0,0,1-39.84-6.93,158.91,158.91,0,0,1-36.53-15,104.43,104.43,0,0,1-31.29-25.76q-12.44-15.37-20.4-40.38t-8-57.68q0-46.53,30.71-79.22-14.38-35,2.72-78.44,11.26-3.46,33.42,5.19t32.46,14.81q10.31,6.15,16.52,10.38a283.72,283.72,0,0,1,149.25,0L590.08,356a209.91,209.91,0,0,1,35.76-16.93q20.6-7.68,31.49-4.22,17.48,43.45,3.1,78.44,30.71,32.68,30.71,79.22,0,32.68-8,57.87t-20.59,40.37a108.12,108.12,0,0,1-31.49,25.57,159.54,159.54,0,0,1-36.53,15,267.45,267.45,0,0,1-39.84,6.93q20.21,17.31,20.2,54.6V774a15.24,15.24,0,0,0,4.87,11.54q4.86,4.61,15.35,2.68,90.18-29.6,147.11-106.7t56.94-173.62q0-80.36-40-148.22Z" transform="translate(-70.76 -75.57)"/></g></g></g></svg>